<?xml version="1.0" encoding="iso-8859-1"?>
<!-- Generator: Adobe Illustrator 19.0.0, SVG Export Plug-In . SVG Version: 6.00 Build 0)  -->
<svg version="1.1" id="Layer_1" xmlns="http://www.w3.org/2000/svg" xmlns:xlink="http://www.w3.org/1999/xlink" x="0px" y="0px"
	 viewBox="0 0 512 512" style="enable-background:new 0 0 512 512;" xml:space="preserve">
<polygon style="fill:#FCD577;" points="512,194.036 469.194,194.036 469.194,468.393 42.806,468.393 42.806,194.036 0,194.036 
	83.906,64.173 255.994,6.025 428.094,64.173 "/>
<polygon style="fill:#FF6F52;" points="404.683,194.036 404.683,134.371 107.305,134.371 107.305,194.036 0,194.036 83.906,64.173 
	255.994,6.025 428.094,64.173 512,194.036 "/>
<rect x="42.806" y="286.206" style="fill:#EAC36E;" width="426.388" height="23.695"/>
<polyline style="fill:#CFDCE5;" points="297.947,447.067 476.042,447.067 476.042,505.975 297.947,505.975 214.041,505.975 
	35.958,505.975 35.958,447.067 214.041,447.067 "/>
<polygon style="fill:#E25749;" points="255.994,6.025 173.937,134.371 107.305,134.371 107.305,194.036 0,194.036 83.906,64.173 "/>
<g>
	<rect x="404.683" y="194.042" style="fill:#EAC36E;" width="64.511" height="18.446"/>
	<rect x="42.806" y="194.042" style="fill:#EAC36E;" width="64.511" height="18.446"/>
</g>
<rect x="214.041" y="351.854" style="fill:#415E72;" width="83.908" height="154.115"/>
<g>
	<rect x="154.696" y="185.109" style="fill:#4EBFED;" width="59.036" height="59.036"/>
	<rect x="298.267" y="185.109" style="fill:#4EBFED;" width="59.036" height="59.036"/>
	<rect x="339.521" y="345.444" style="fill:#4EBFED;" width="88.853" height="65.755"/>
	<rect x="83.621" y="345.444" style="fill:#4EBFED;" width="88.853" height="65.755"/>
</g>
<g>
	<rect x="107.305" y="134.377" style="fill:#EAC36E;" width="297.378" height="43.634"/>
	<path style="fill:#EAC36E;" d="M148.776,250.074h70.884V179.19h-70.884V250.074z M160.623,191.038h47.188v47.188h-47.188V191.038z"
		/>
	<path style="fill:#EAC36E;" d="M363.22,179.19h-70.884v70.884h70.884V179.19z M351.372,238.226h-47.188v-47.188h47.188V238.226z"/>
	<path style="fill:#EAC36E;" d="M333.599,339.519v77.599H434.3v-77.599H333.599z M345.447,351.367h32.579v53.904h-32.579V351.367z
		 M422.452,405.271h-32.579v-53.904h32.579V405.271z"/>
	<path style="fill:#EAC36E;" d="M77.696,339.519v77.599h100.702v-77.599H77.696z M89.544,351.367h32.58v53.904h-32.58V351.367z
		 M166.55,405.271h-32.579v-53.904h32.579V405.271z"/>
</g>
<g>
	<rect x="22.313" y="237.038" style="fill:#CFDCE5;" width="467.37" height="55.092"/>
	<circle style="fill:#CFDCE5;" cx="233.495" cy="434.03" r="7.701"/>
</g>
<g>
</g>
<g>
</g>
<g>
</g>
<g>
</g>
<g>
</g>
<g>
</g>
<g>
</g>
<g>
</g>
<g>
</g>
<g>
</g>
<g>
</g>
<g>
</g>
<g>
</g>
<g>
</g>
<g>
</g>
</svg>
